<svg width="78" height="101" viewBox="0 0 78 101" fill="none" xmlns="http://www.w3.org/2000/svg">
<path d="M77.2749 93.2649L53.8719 51.8476C53.8142 51.7596 53.7374 51.6854 53.6472 51.6305C53.5571 51.5755 53.4556 51.541 53.3504 51.5295C53.2451 51.518 53.1385 51.5299 53.0384 51.5642C52.9383 51.5984 52.8471 51.6543 52.7715 51.7277L38.7656 64.4853L73.4169 7.77882C73.8925 7.00369 74.1515 6.11739 74.1677 5.2106C74.1838 4.30381 73.9564 3.40906 73.5087 2.61784C73.061 1.82662 72.409 1.16731 71.6195 0.70736C70.8301 0.247411 69.9314 0.00332735 69.0154 4.79167e-05H33.2856C31.2947 -0.0056622 29.3361 0.499065 27.6006 1.46511C25.8651 2.43115 24.4118 3.8256 23.3821 5.51272L1.90247 40.6805C0.669157 42.7017 0.0117817 45.0158 0.000156896 47.3772C-0.0114679 49.7385 0.623094 52.0589 1.83645 54.0919L26.78 98.2982C27.2725 99.1209 27.9729 99.8027 28.8121 100.276C29.6513 100.75 30.6006 100.999 31.5667 101H72.8293C73.7425 101 74.6393 100.76 75.4286 100.306C76.2179 99.8511 76.8716 99.1977 77.3232 98.4119C77.7748 97.6262 78.0083 96.736 77.9998 95.8319C77.9913 94.9279 77.7411 94.0422 77.2749 93.2649Z" fill="#36028D"/>
</svg>
